<mxfile host="app.diagrams.net" modified="2022-03-05T05:56:58.228Z" agent="5.0 (Windows NT 10.0; Win64; x64) AppleWebKit/537.36 (KHTML, like Gecko) Chrome/98.0.4758.102 Safari/537.36" etag="vSHYSY-tZJMLOGFPbLdc" version="16.6.5" type="github">
  <diagram id="VE0MT-sr3lQz6JG6_y8F" name="Page-1">
    <mxGraphModel dx="454" dy="769" grid="1" gridSize="10" guides="1" tooltips="1" connect="1" arrows="1" fold="1" page="1" pageScale="1" pageWidth="850" pageHeight="1100" math="0" shadow="0">
      <root>
        <mxCell id="0" />
        <mxCell id="1" parent="0" />
        <mxCell id="pRyik_nWfFNicp0CnTC7-1" value="«interface»&lt;br&gt;&lt;b&gt;java.util.Collection&amp;lt;E&amp;gt;&lt;/b&gt;" style="html=1;" vertex="1" parent="1">
          <mxGeometry x="160" y="200" width="160" height="50" as="geometry" />
        </mxCell>
        <mxCell id="pRyik_nWfFNicp0CnTC7-10" style="edgeStyle=orthogonalEdgeStyle;rounded=0;orthogonalLoop=1;jettySize=auto;html=1;entryX=0.5;entryY=1;entryDx=0;entryDy=0;endArrow=block;endFill=0;dashed=1;exitX=0.5;exitY=0;exitDx=0;exitDy=0;" edge="1" parent="1" source="pRyik_nWfFNicp0CnTC7-2" target="pRyik_nWfFNicp0CnTC7-1">
          <mxGeometry relative="1" as="geometry" />
        </mxCell>
        <mxCell id="pRyik_nWfFNicp0CnTC7-2" value="«interface»&lt;br&gt;&lt;b&gt;java.util.List&amp;lt;E&amp;gt;&lt;/b&gt;" style="html=1;" vertex="1" parent="1">
          <mxGeometry x="160" y="320" width="160" height="50" as="geometry" />
        </mxCell>
        <mxCell id="pRyik_nWfFNicp0CnTC7-8" style="edgeStyle=orthogonalEdgeStyle;rounded=0;orthogonalLoop=1;jettySize=auto;html=1;entryX=0.5;entryY=1;entryDx=0;entryDy=0;endArrow=block;endFill=0;exitX=0.5;exitY=0;exitDx=0;exitDy=0;" edge="1" parent="1" source="pRyik_nWfFNicp0CnTC7-3" target="pRyik_nWfFNicp0CnTC7-2">
          <mxGeometry relative="1" as="geometry" />
        </mxCell>
        <mxCell id="pRyik_nWfFNicp0CnTC7-3" value="java.util.LinkedList&lt;E&gt;" style="swimlane;fontStyle=0;childLayout=stackLayout;horizontal=1;startSize=26;fillColor=none;horizontalStack=0;resizeParent=1;resizeParentMax=0;resizeLast=0;collapsible=1;marginBottom=0;" vertex="1" parent="1">
          <mxGeometry x="40" y="440" width="160" height="52" as="geometry" />
        </mxCell>
        <mxCell id="pRyik_nWfFNicp0CnTC7-9" style="edgeStyle=orthogonalEdgeStyle;rounded=0;orthogonalLoop=1;jettySize=auto;html=1;endArrow=block;endFill=0;exitX=0.5;exitY=0;exitDx=0;exitDy=0;" edge="1" parent="1" source="pRyik_nWfFNicp0CnTC7-7">
          <mxGeometry relative="1" as="geometry">
            <mxPoint x="240" y="370" as="targetPoint" />
          </mxGeometry>
        </mxCell>
        <mxCell id="pRyik_nWfFNicp0CnTC7-7" value="java.util.ArrayList&lt;E&gt;" style="swimlane;fontStyle=0;childLayout=stackLayout;horizontal=1;startSize=26;fillColor=none;horizontalStack=0;resizeParent=1;resizeParentMax=0;resizeLast=0;collapsible=1;marginBottom=0;" vertex="1" parent="1">
          <mxGeometry x="280" y="440" width="160" height="52" as="geometry" />
        </mxCell>
      </root>
    </mxGraphModel>
  </diagram>
</mxfile>
